<?xml version="1.0" encoding="iso-8859-1"?>
<!-- Generator: Adobe Illustrator 19.0.0, SVG Export Plug-In . SVG Version: 6.00 Build 0)  -->
<svg version="1.1" id="Layer_1" xmlns="http://www.w3.org/2000/svg" xmlns:xlink="http://www.w3.org/1999/xlink" x="0px" y="0px"
	 viewBox="0 0 492.308 492.308" style="enable-background:new 0 0 492.308 492.308;" xml:space="preserve">
<g>
	<g>
		<path d="M426.567,46.212V28.923C426.567,12.971,413.591,0,397.639,0c-15.947,0-28.923,12.971-28.923,28.923v17.288H123.591V28.923
			C123.591,12.971,110.615,0,94.668,0C78.721,0,65.745,12.971,65.745,28.923v17.288H0v446.096h492.308V46.212H426.567z
			 M388.409,28.923c0-5.087,4.144-9.231,9.236-9.231c5.091,0,9.231,4.144,9.231,9.231v43.596h-18.466V28.923z M85.437,28.923
			c0-5.087,4.139-9.231,9.231-9.231c5.091,0,9.231,4.144,9.231,9.231v43.596H85.437V28.923z M472.615,472.615H19.692V173.404
			h452.923V472.615z M472.615,153.712H19.692V65.904h46.053v26.308h57.846V65.904h245.125v26.308h57.851V65.904h46.048V153.712z"/>
	</g>
</g>
<g>
	<g>
		<polygon points="348.072,235.01 209.851,374.625 144.236,308.356 130.245,322.202 209.851,402.625 362.063,248.856 		"/>
	</g>
</g>
<g>
</g>
<g>
</g>
<g>
</g>
<g>
</g>
<g>
</g>
<g>
</g>
<g>
</g>
<g>
</g>
<g>
</g>
<g>
</g>
<g>
</g>
<g>
</g>
<g>
</g>
<g>
</g>
<g>
</g>
</svg>
